<?xml version="1.0" encoding="UTF-8" standalone="no"?>
<svg
   viewBox="0 0 32 32"
   version="1.1"
   id="svg15"
   sodipodi:docname="postman.svg"
   inkscape:version="1.1 (1:1.1+202105261517+ce6663b3b7)"
   xmlns:inkscape="http://www.inkscape.org/namespaces/inkscape"
   xmlns:sodipodi="http://sodipodi.sourceforge.net/DTD/sodipodi-0.dtd"
   xmlns="http://www.w3.org/2000/svg"
   xmlns:svg="http://www.w3.org/2000/svg">
  <defs
     id="defs19" />
  <sodipodi:namedview
     id="namedview17"
     pagecolor="#ffffff"
     bordercolor="#666666"
     borderopacity="1.0"
     inkscape:pageshadow="2"
     inkscape:pageopacity="0.0"
     inkscape:pagecheckerboard="0"
     showgrid="false"
     inkscape:snap-nodes="false"
     inkscape:zoom="23.5113"
     inkscape:cx="13.270215"
     inkscape:cy="27.072089"
     inkscape:window-width="1366"
     inkscape:window-height="704"
     inkscape:window-x="0"
     inkscape:window-y="27"
     inkscape:window-maximized="1"
     inkscape:current-layer="layer1" />
  <title
     id="title2">file_type_cypress</title>
  <g
     inkscape:groupmode="layer"
     id="layer1"
     inkscape:label="new"
     style="display:inline">
    <path
       d="m 25.749857,12.000724 a 12.234741,12.234741 0 1 0 -2.202636,17.159223 c 5.345053,-4.130754 6.33148,-11.812259 2.202254,-17.159223 z"
       class="C"
       id="path4"
       style="fill:#ff6c37;stroke-width:0.382336" />
    <path
       d="m 20.192991,15.039527 -5.158855,5.199765 -1.457846,-1.498756 c 5.077417,-5.077417 5.587071,-4.618615 6.617083,-3.701009 z"
       class="D"
       id="path6"
       style="fill:#ffffff;stroke-width:0.382336" />
    <path
       d="m 15.034136,20.381521 a 0.18352112,0.18352112 0 0 1 -0.122347,-0.05085 L 13.44362,18.862506 a 0.18352112,0.18352112 0 0 1 0,-0.255018 c 5.005921,-5.00592 5.689154,-4.771549 6.871719,-3.70101 0.04014,0.03212 0.06271,0.08106 0.06117,0.132671 0.0076,0.0497 -0.01147,0.100556 -0.05085,0.132671 l -5.158855,5.159237 c -0.03632,0.03327 -0.08335,0.05123 -0.13267,0.05085 z m -1.20321,-1.641367 1.20321,1.20321 4.893897,-4.893896 a 1.1011267,1.1011267 0 0 0 -1.447905,-0.244695 c -0.887019,0.39763 -2.314278,1.61078 -4.649202,3.935381 z"
       class="C"
       id="path8"
       style="fill:#ff6c37;stroke-width:0.382336" />
    <path
       d="m 16.512628,21.676874 -1.406995,-1.437582 5.158855,-5.098063 c 1.386732,1.356144 -0.672911,3.619571 -3.75186,6.535263 z"
       class="D"
       id="path10"
       style="fill:#ffffff;stroke-width:0.382336" />
    <path
       d="m 16.512628,21.860396 a 0.21410797,0.21410797 0 0 1 -0.122347,-0.05085 L 14.952699,20.40255 a 0.21410797,0.21410797 0 0 1 0,-0.163257 c -0.01529,-0.04282 -0.01529,-0.08984 0,-0.13267 l 5.158855,-5.158855 c 0.07455,-0.06997 0.190403,-0.06997 0.264959,0 0.338367,0.311221 0.5238,0.753966 0.509652,1.213151 0,1.376408 -1.570252,3.109536 -4.241249,5.638304 a 0.21410797,0.21410797 0 0 1 -0.13267,0.06117 z m -1.142036,-1.621104 1.151977,1.151595 c 2.038996,-1.926972 3.986614,-3.915117 3.996554,-5.260939 a 1.1623004,1.1623004 0 0 0 -0.264958,-0.784935 z"
       class="C"
       id="path12"
       style="fill:#ff6c37;stroke-width:0.382336" />
    <path
       d="m 13.616818,18.771123 1.019689,1.019689 a 0.06117371,0.06117371 0 0 1 0,0.09176 l -2.151403,0.458802 c -0.08908,0.01911 -0.179697,-0.02371 -0.222519,-0.103995 -0.04282,-0.08029 -0.02676,-0.179698 0.039,-0.242784 l 1.254061,-1.243737 c 0,0 0.0409,0 0.06117,0.02026 z"
       class="D"
       id="path14"
       style="fill:#ffffff;stroke-width:0.382336" />
    <path
       d="m 12.434253,20.545161 a 0.39762908,0.39762908 0 0 1 -0.336455,-0.193845 c -0.08029,-0.151787 -0.05162,-0.338749 0.0715,-0.458802 l 1.243738,-1.254061 a 0.24469483,0.24469483 0 0 1 0.326132,0 l 1.01969,1.019689 c 0.06041,0.05735 0.08411,0.144141 0.06117,0.224431 -0.02294,0.08029 -0.09023,0.14414 -0.173197,0.163257 l -2.151403,0.458804 z m 1.142037,-1.549607 -1.151977,1.151978 1.906708,-0.407953 z m 0.09176,-0.09176 z"
       class="C"
       id="path16"
       style="fill:#ff6c37;stroke-width:0.382336" />
    <path
       d="m 22.935867,12.174304 c -0.737908,-0.711909 -1.897149,-0.741731 -2.670997,-0.06997 -0.773847,0.671764 -0.906135,1.824889 -0.303574,2.654557 0.602561,0.829668 1.73848,1.062128 2.617852,0.53527 l -1.386732,-1.386731 z"
       class="D"
       id="path18"
       style="fill:#ffffff;stroke-width:0.382336" />
    <path
       d="m 21.559459,15.762906 a 2.1601964,2.1601964 0 0 1 -1.971323,-1.341233 c -0.328809,-0.80214 -0.146817,-1.722805 0.458803,-2.33913 a 2.1831366,2.1831366 0 0 1 3.058685,0 c 0.039,0.03288 0.06117,0.08144 0.06117,0.132671 a 0.1758744,0.1758744 0 0 1 -0.06117,0.13267 l -1.65169,1.55993 1.254062,1.233797 a 0.17205104,0.17205104 0 0 1 0.05085,0.152934 0.18352112,0.18352112 0 0 1 -0.08143,0.13267 2.2175468,2.2175468 0 0 1 -1.121391,0.336456 z m 0,-3.956027 c -0.726438,0.0038 -1.376409,0.440833 -1.649014,1.108774 -0.272606,0.667941 -0.124259,1.436817 0.385012,1.949912 0.518447,0.521123 1.299941,0.670998 1.977822,0.377365 L 21.07007,14.03972 c -0.04014,-0.03212 -0.06271,-0.08106 -0.06117,-0.13267 0.0016,-0.04779 0.02371,-0.09252 0.06117,-0.122348 l 1.590515,-1.60084 c -0.316191,-0.2424 -0.702733,-0.374689 -1.101126,-0.377365 z"
       class="C"
       id="path20"
       style="fill:#ff6c37;stroke-width:0.382336" />
    <path
       d="m 22.966454,12.204891 -1.743451,1.733127 1.386732,1.386732 a 2.1104929,2.1104929 0 0 0 0.387306,-0.285606 c 0.755495,-0.802903 0.741731,-2.052377 -0.03059,-2.834253 z"
       class="D"
       id="path22"
       style="fill:#ffffff;stroke-width:0.382336" />
    <path
       d="m 22.578765,15.477684 a 0.15293427,0.15293427 0 0 1 -0.122346,-0.05086 l -1.386732,-1.386725 c -0.04014,-0.03212 -0.06271,-0.08106 -0.06117,-0.132671 0.0016,-0.04779 0.02371,-0.09252 0.06117,-0.122348 l 1.733127,-1.702541 a 0.18352112,0.18352112 0 0 1 0.305869,0 2.1410797,2.1410797 0 0 1 0,3.058686 1.865798,1.865798 0 0 1 -0.407952,0.326132 0.16440433,0.16440433 0 0 1 -0.122348,0.01032 z m -1.121389,-1.56987 1.151976,1.151977 a 1.9575586,1.9575586 0 0 0 0.224431,-0.183521 1.8046243,1.8046243 0 0 0 0.5303,-1.274325 1.7510973,1.7510973 0 0 0 -0.438539,-1.1623 z"
       class="C"
       id="path24"
       style="fill:#ff6c37;stroke-width:0.382336" />
    <path
       d="m 20.407099,15.253636 c -0.286752,-0.269166 -0.732938,-0.269166 -1.019689,0 l -4.618233,4.607909 0.764672,0.774994 4.883573,-4.28216 c 0.151023,-0.14414 0.235519,-0.344101 0.233225,-0.552856 -0.0023,-0.208756 -0.09023,-0.407188 -0.243548,-0.54827 z"
       class="D"
       id="path26"
       style="fill:#ffffff;stroke-width:0.382336" />
    <path
       d="m 15.492939,20.820442 a 0.18352112,0.18352112 0 0 1 -0.122347,-0.05085 l -0.774994,-0.774994 a 0.18352112,0.18352112 0 0 1 0,-0.255019 l 4.618614,-4.59835 c 0.366277,-0.365514 0.959662,-0.365514 1.325558,0 0.183521,0.183521 0.282928,0.43395 0.275282,0.693174 -0.0107,0.257695 -0.124642,0.500096 -0.316192,0.672911 l -4.883573,4.28216 c -0.03556,0.02523 -0.07914,0.03594 -0.122348,0.03059 z m -0.54024,-0.958897 0.509653,0.519976 4.791813,-4.170135 c 0.118524,-0.103235 0.189256,-0.250812 0.193844,-0.407952 0.0046,-0.15714 -0.05735,-0.310839 -0.173198,-0.417893 -0.222901,-0.221755 -0.582679,-0.221755 -0.805581,0 z"
       class="C"
       id="path28"
       style="fill:#ff6c37;stroke-width:0.382336" />
    <path
       d="m 11.190516,25.112543 a 0.10323063,0.10323063 0 0 0 0,0.122347 l 0.203785,0.887019 c 0.01759,0.105907 -0.03327,0.211431 -0.126935,0.267634 a 0.24851817,0.24851817 0 0 1 -0.29134,-0.02944 L 9.5793539,25.014281 13.933009,20.626214 h 1.509079 l 1.019689,1.01969 a 23.1466,23.1466 0 0 1 -5.271261,3.466639 z"
       class="D"
       id="path30"
       style="fill:#ffffff;stroke-width:0.382336" />
    <path
       d="m 11.098755,26.611298 c -0.115466,-0.0023 -0.229401,-0.0497 -0.305869,-0.13267 L 9.4573885,25.14313 c -0.040143,-0.03212 -0.062706,-0.08106 -0.061174,-0.132671 0.00156,-0.04779 0.023709,-0.09252 0.061174,-0.122348 l 4.3838605,-4.394183 a 0.17205104,0.17205104 0 0 1 0.09176,-0.05085 h 1.51902 a 0.18352112,0.18352112 0 0 1 0.122347,0 l 1.01969,1.019689 c 0.03938,0.03632 0.0585,0.08985 0.05085,0.142612 a 0.16440433,0.16440433 0 0 1 -0.06117,0.13267 l -0.08143,0.0715 a 24.977989,24.977989 0 0 1 -5.230352,3.354231 l 0.193844,0.825845 a 0.439686,0.439686 0 0 1 -0.417892,0.54024 z M 9.8550174,25.010459 11.057846,26.22361 a 0.06117371,0.06117371 0 0 0 0.08143,0 0.06117371,0.06117371 0 0 0 0,-0.0715 l -0.203781,-0.887013 c -0.03288,-0.131142 0.03059,-0.267635 0.152934,-0.326133 a 25.065926,25.065926 0 0 0 5.097681,-3.283117 l -0.836165,-0.836169 h -1.366084 z m 1.4681686,0.183521 z"
       class="C"
       id="path32"
       style="fill:#ff6c37;stroke-width:0.382336" />
    <path
       d="M 8.5294605,26.060735 9.5491494,25.041046 11.119401,26.611298 8.6216028,26.4381 c -0.087936,-0.0065 -0.1624923,-0.06882 -0.1835207,-0.155229 -0.021031,-0.0864 0.01606,-0.175873 0.091761,-0.221753 z"
       class="D"
       id="path34"
       style="fill:#ffffff;stroke-width:0.382336" />
    <path
       d="M 11.149606,26.764232 8.6617483,26.591035 C 8.514167,26.577268 8.3872317,26.476334 8.3352338,26.341369 8.2832412,26.206405 8.3149745,26.046207 8.4170527,25.938387 l 1.0196889,-1.019689 a 0.18352112,0.18352112 0 0 1 0.2550176,0 l 1.5599298,1.55993 c 0.04435,0.06117 0.04435,0.142994 0,0.203785 -0.02371,0.03824 -0.05964,0.06691 -0.102089,0.08143 z M 8.6617483,26.193405 10.700744,26.326076 9.5793539,25.2758 Z"
       class="C"
       id="path36"
       style="fill:#ff6c37;stroke-width:0.382336" />
    <path
       d="m 15.5847,20.749328 -2.059643,0.316191 1.192887,-1.182563 z"
       class="D"
       id="path38"
       style="fill:#ffffff;stroke-width:0.382336" />
    <path
       d="m 13.525057,21.258599 c -0.06997,0.0019 -0.133817,-0.03824 -0.163257,-0.102088 a 0.17205104,0.17205104 0 0 1 0,-0.203784 l 1.182564,-1.192887 c 0.07456,-0.06997 0.190404,-0.06997 0.264959,0 l 0.867137,0.866371 a 0.17205104,0.17205104 0 0 1 0,0.183522 0.17969776,0.17969776 0 0 1 -0.142611,0.13267 l -2.038996,0.316192 z m 1.192887,-1.111449 -0.662587,0.662587 1.142037,-0.173198 z"
       class="C"
       id="path40"
       style="fill:#ff6c37;stroke-width:0.382336" />
    <path
       d="m 15.5847,20.748563 -1.437582,0.183521 A 0.18352112,0.18352112 0 0 1 13.97392,20.626215 l 0.744407,-0.744407 z"
       class="D"
       id="path42"
       style="fill:#ffffff;stroke-width:0.382336" />
    <path
       d="m 14.106207,21.126311 c -0.135729,-0.0011 -0.259988,-0.07532 -0.326132,-0.193845 a 0.36704223,0.36704223 0 0 1 0.06117,-0.438538 l 0.744408,-0.744408 c 0.07456,-0.06997 0.190403,-0.06997 0.264958,0 l 0.866755,0.866755 a 0.18352112,0.18352112 0 0 1 -0.11202,0.316191 l -1.42726,0.183522 z m 0,-0.377365 1.080863,-0.132671 -0.479067,-0.479066 -0.611737,0.611737 z m 8.870188,-7.371431 a 0.15293427,0.15293427 0 0 0 -0.193844,-0.06117 0.14146419,0.14146419 0 0 0 -0.07112,0.08411 c -0.01147,0.03632 -0.0076,0.0757 0.0099,0.109729 0.0715,0.150259 0.05162,0.328045 -0.05085,0.458804 -0.02676,0.02523 -0.03824,0.06003 -0.03824,0.09673 a 0.14528755,0.14528755 0 0 0 0.03824,0.09673 0.11087735,0.11087735 0 0 0 0.08143,0 0.13381748,0.13381748 0 0 0 0.13267,-0.0409 0.70349761,0.70349761 0 0 0 0.09176,-0.744403 z"
       class="C"
       id="path44"
       style="fill:#ff6c37;stroke-width:0.382336" />
  </g>
</svg>
