<?xml version="1.0" encoding="UTF-8" standalone="no"?>
<svg
   viewBox="0 0 32 32"
   version="1.1"
   id="svg15"
   sodipodi:docname="quiz.svg"
   inkscape:version="1.1 (1:1.1+202105261517+ce6663b3b7)"
   xmlns:inkscape="http://www.inkscape.org/namespaces/inkscape"
   xmlns:sodipodi="http://sodipodi.sourceforge.net/DTD/sodipodi-0.dtd"
   xmlns="http://www.w3.org/2000/svg"
   xmlns:svg="http://www.w3.org/2000/svg">
  <defs
     id="defs19" />
  <sodipodi:namedview
     id="namedview17"
     pagecolor="#ffffff"
     bordercolor="#666666"
     borderopacity="1.0"
     inkscape:pageshadow="2"
     inkscape:pageopacity="0.0"
     inkscape:pagecheckerboard="0"
     showgrid="false"
     inkscape:snap-nodes="false"
     inkscape:zoom="23.5113"
     inkscape:cx="10.292923"
     inkscape:cy="20.309383"
     inkscape:window-width="1366"
     inkscape:window-height="704"
     inkscape:window-x="0"
     inkscape:window-y="27"
     inkscape:window-maximized="1"
     inkscape:current-layer="layer2" />
  <title
     id="title2">file_type_cypress</title>
  <g
     inkscape:groupmode="layer"
     id="layer2"
     inkscape:label="new">
    <g
       inkscape:groupmode="layer"
       id="layer4"
       inkscape:label="fons"
       style="display:inline">
      <circle
         style="fill:#ffffff;stroke-width:0.832617"
         id="path322"
         cx="22.937361"
         cy="26.047886"
         r="4.5599885" />
      <circle
         style="fill:#ffffff;stroke:none;stroke-width:1.01323"
         id="path898"
         cx="15.821046"
         cy="21.163706"
         r="9.3583803" />
      <path
         style="fill:#ffffff;stroke:none;stroke-width:1px;stroke-linecap:butt;stroke-linejoin:miter;stroke-opacity:1"
         d="m 8.4797469,12.486138 -1.4543781,1.253187 c 0,0 1.1066644,1.338402 1.2498003,1.386331 0.1431358,0.04793 1.2721511,-0.962902 1.2721511,-0.962902 0,0 -0.018889,-0.884089 -0.1612832,-0.989122 C 9.243643,13.068598 8.4797469,12.486138 8.4797469,12.486138 Z"
         id="path1133" />
      <path
         style="display:inline;fill:#ffffff;stroke:none;stroke-width:1px;stroke-linecap:butt;stroke-linejoin:miter;stroke-opacity:1"
         d="M 16.010365,9.6278728 14.555987,10.88106 c 0,0 1.106664,1.338402 1.2498,1.386331 0.143136,0.04793 1.272151,-0.962902 1.272151,-0.962902 0,0 -0.01889,-0.884089 -0.161283,-0.989122 -0.142394,-0.105034 -0.90629,-0.6874942 -0.90629,-0.6874942 z"
         id="path1133-5" />
      <path
         style="display:inline;fill:#ffffff;stroke:none;stroke-width:1px;stroke-linecap:butt;stroke-linejoin:miter;stroke-opacity:1"
         d="m 23.518691,12.558006 -1.454379,1.253187 c 0,0 1.106665,1.338402 1.249801,1.386331 0.143136,0.04793 1.272151,-0.962902 1.272151,-0.962902 0,0 -0.01889,-0.884089 -0.161283,-0.989122 -0.142394,-0.105034 -0.90629,-0.687494 -0.90629,-0.687494 z"
         id="path1133-3" />
      <path
         style="display:inline;fill:#ffffff;stroke:none;stroke-width:1px;stroke-linecap:butt;stroke-linejoin:miter;stroke-opacity:1"
         d="M 15.968644,7.5228312 13.19331,7.794661 c 0,0 -0.229122,1.6253383 -0.08599,1.6732673 0.143136,0.04793 5.30043,-0.013479 5.30043,-0.013479 0,0 0.169963,-1.6319204 -0.131564,-1.8446728 -0.144576,-0.1020101 -2.307546,-0.086945 -2.307546,-0.086945 z"
         id="path1133-6"
         sodipodi:nodetypes="ccscsc" />
    </g>
    <g
       inkscape:groupmode="layer"
       id="layer5"
       inkscape:label="fons_tick"
       style="display:inline"
       sodipodi:insensitive="true">
      <path
         style="fill:#008000;stroke:none;stroke-width:1px;stroke-linecap:butt;stroke-linejoin:miter;stroke-opacity:1"
         d="m 21.418779,25.306967 1.112183,0.687696 1.769768,-1.808905 0.947919,-0.06016 c 0,0 0.449443,0.256489 0.413659,0.726572 -0.03578,0.470084 -0.549575,1.211931 -0.549575,1.211931 0,0 -2.019111,1.724496 -2.113643,1.84552 -0.09453,0.121024 -1.078272,0.358605 -1.078272,0.358605 0,0 -1.232011,-1.150364 -1.351252,-1.3042 -0.119242,-0.153836 -0.474569,-1.13616 -0.474569,-1.13616 l 0.790426,-0.471236 z"
         id="path593" />
    </g>
    <g
       inkscape:groupmode="layer"
       id="layer3"
       inkscape:label="trazo"
       sodipodi:insensitive="true">
      <g
         id="g14"
         transform="matrix(0.04728744,0,0,0.04728744,4.9140845,7.0991511)">
        <g
           id="g12">
          <path
             d="m 439.57,356.383 c -5.666,-5.666 -13.199,-8.786 -21.212,-8.786 -8.014,0 -15.547,3.121 -21.212,8.786 l -27.601,27.601 -4.689,-4.69 c -5.666,-5.666 -13.199,-8.786 -21.212,-8.786 -8.013,0 -15.546,3.12 -21.212,8.786 -11.696,11.696 -11.696,30.728 0,42.424 l 25.901,25.901 c 5.666,5.666 13.199,8.786 21.212,8.786 8.014,0 15.547,-3.121 21.212,-8.786 l 48.813,-48.812 c 11.696,-11.697 11.696,-30.728 0,-42.424 z m -14.143,28.281 -48.813,48.813 c -1.888,1.888 -4.398,2.928 -7.069,2.928 -2.671,0 -5.182,-1.04 -7.069,-2.929 l -25.901,-25.901 c -3.898,-3.897 -3.898,-10.24 0,-14.139 1.888,-1.889 4.398,-2.929 7.069,-2.929 2.671,0 5.182,1.04 7.069,2.929 l 11.761,11.762 c 1.875,1.875 4.419,2.929 7.071,2.929 2.652,0 5.196,-1.054 7.071,-2.929 l 34.672,-34.673 c 1.888,-1.888 4.398,-2.928 7.069,-2.928 2.671,0 5.182,1.04 7.069,2.929 3.9,3.898 3.9,10.24 0.001,14.138 z"
             id="path2" />
          <path
             d="m 440.845,309.749 c 0.099,-2.633 0.156,-5.229 0.156,-7.748 0,-46.195 -15.005,-88.944 -40.38,-123.657 l 20.946,-20.948 c 3.77,-3.77 5.846,-8.792 5.846,-14.142 0,-5.351 -2.076,-10.374 -5.846,-14.143 l -17.678,-17.678 c -3.77,-3.77 -8.792,-5.846 -14.142,-5.846 -0.001,0 0,0 -0.001,0 -5.351,0 -10.373,2.077 -14.142,5.846 L 354.657,132.38 C 327.598,112.599 295.654,99.131 261,94.152 V 65 h 20 c 11.028,0 20,-8.972 20,-20 V 19.999 C 301,8.972 292.029,0 281,0 H 181 C 169.972,0 161,8.972 161,19.999 V 45 c 0,11.028 8.972,20 20,20 h 20 v 29.153 c -34.654,4.979 -66.597,18.448 -93.656,38.228 L 86.396,111.433 c -7.799,-7.795 -20.486,-7.796 -28.283,10e-4 l -17.68,17.679 c -7.796,7.799 -7.796,20.486 10e-4,28.283 l 20.948,20.947 C 36.005,213.056 21,255.806 21,302.001 c 0,39.585 11.087,78.158 32.063,111.551 1.899,3.024 5.151,4.682 8.478,4.682 1.817,0 3.657,-0.495 5.31,-1.533 4.677,-2.938 6.086,-9.11 3.148,-13.787 C 51.028,372.712 41,337.817 41,302.001 c 0,-104.767 85.233,-190 190,-190 103.937,0 188.633,83.892 189.969,187.518 -9.518,-3.725 -19.678,-6.155 -30.263,-7.085 -2.31,-39.357 -18.821,-76.025 -47.011,-104.003 -30.167,-29.94 -70.189,-46.43 -112.695,-46.43 -88.225,0 -160,71.775 -160,160 0,88.225 71.775,160.001 160,160.001 18.083,0 35.749,-2.985 52.631,-8.872 4.878,9.252 11.033,17.729 18.234,25.193 -22.473,9.07 -46.246,13.678 -70.865,13.678 -35.824,0 -70.719,-10.027 -100.91,-28.997 -4.676,-2.938 -10.848,-1.53 -13.788,3.146 -2.938,4.677 -1.529,10.85 3.147,13.788 33.384,20.976 71.957,32.063 111.551,32.063 30.724,0 60.267,-6.486 87.898,-19.258 17.685,12.142 39.077,19.258 62.102,19.258 60.654,0 110,-49.346 110,-110 0,-38.6 -19.989,-72.616 -50.155,-92.252 z m -51.098,-184.172 17.678,17.677 -19.433,19.435 c -5.539,-6.235 -11.442,-12.138 -17.678,-17.678 z M 180.999,20 281,19.999 V 45 H 181 Z M 54.576,143.255 72.254,125.577 91.688,145.011 C 85.453,150.55 79.55,156.454 74.01,162.689 Z M 221,92.245 V 65 h 20.002 v 27.245 c -3.315,-0.156 -6.648,-0.244 -10.001,-0.244 -3.353,0 -6.686,0.087 -10.001,0.244 z m 20,349.405 v -9.649 c 0,-5.522 -4.478,-10 -10,-10 -5.522,0 -10,4.478 -10,10 v 9.64 c -31.093,-2.205 -59.414,-14.603 -81.627,-33.871 l 6.774,-6.775 c 3.905,-3.905 3.905,-10.236 0,-14.142 -3.906,-3.906 -10.238,-3.904 -14.143,0 l -6.773,6.774 C 105.963,371.414 93.566,343.093 91.361,312 h 9.64 c 5.522,0 10,-4.478 10,-10 0,-5.522 -4.478,-10 -10,-10 h -9.64 c 2.205,-31.093 14.602,-59.414 33.87,-81.626 l 6.774,6.774 c 1.953,1.952 4.512,2.929 7.071,2.929 2.559,0 5.118,-0.977 7.071,-2.929 3.905,-3.905 3.905,-10.237 0,-14.143 l -6.774,-6.774 c 22.212,-19.268 50.534,-31.665 81.626,-33.87 v 9.64 c 0,5.522 4.478,10 10,10 5.522,0 10,-4.478 10,-10 v -9.638 c 31.014,2.216 59.327,14.647 81.556,33.939 l -6.703,6.703 c -3.905,3.905 -3.905,10.237 0,14.143 1.953,1.952 4.512,2.929 7.071,2.929 2.559,0 5.118,-0.977 7.071,-2.929 l 6.704,-6.704 c 19.383,22.331 31.844,50.815 33.959,82.046 C 314.836,297.72 271,344.834 271,402 c 0,11.352 1.729,22.308 4.937,32.619 -11.294,3.833 -22.986,6.191 -34.937,7.031 z m 140,50.351 c -49.626,0 -89.999,-40.374 -89.999,-90 0,-49.626 40.373,-90 89.999,-90 49.626,0 90,40.374 90,90 0,49.626 -40.374,90 -90,90 z"
             id="path4-3" />
          <path
             d="m 230.993,241.764 c -19.299,0 -35,15.7 -35,34.999 0,5.522 4.478,10 10,10 5.522,0 10,-4.478 10,-10 0,-8.271 6.729,-14.999 15,-14.999 8.271,0 15,6.729 15,14.999 0,4.006 -1.598,7.811 -4.5,10.712 -11.615,11.614 -20.5,21.549 -20.5,34.756 0,5.522 4.478,10 10,10 5.522,0 10,-4.478 10,-10 0,-4.465 3.694,-9.667 14.643,-20.613 6.679,-6.68 10.357,-15.506 10.357,-24.854 0,-19.3 -15.701,-35 -35,-35 z"
             id="path6-6" />
          <path
             d="m 230.993,342.232 c -5.522,0 -10,4.478 -10,10 v 0.007 c 0,5.522 4.478,9.997 10,9.997 5.522,0 10,-4.481 10,-10.004 0,-5.523 -4.478,-10 -10,-10 z"
             id="path8-7" />
          <path
             d="m 95.986,435.734 c -4.239,-3.532 -10.546,-2.962 -14.084,1.281 l -0.005,0.006 c -3.535,4.242 -2.959,10.545 1.283,14.081 1.869,1.557 4.138,2.316 6.395,2.316 2.867,0 5.714,-1.227 7.692,-3.601 3.535,-4.241 2.962,-10.546 -1.281,-14.083 z"
             id="path10-5" />
        </g>
      </g>
    </g>
  </g>
</svg>
