<?xml version="1.0" encoding="UTF-8" standalone="no"?>
<svg
   viewBox="0 0 32 32"
   version="1.1"
   id="svg15"
   sodipodi:docname="cypress.svg"
   inkscape:version="1.1 (1:1.1+202105261517+ce6663b3b7)"
   xmlns:inkscape="http://www.inkscape.org/namespaces/inkscape"
   xmlns:sodipodi="http://sodipodi.sourceforge.net/DTD/sodipodi-0.dtd"
   xmlns="http://www.w3.org/2000/svg"
   xmlns:svg="http://www.w3.org/2000/svg">
  <defs
     id="defs19" />
  <sodipodi:namedview
     id="namedview17"
     pagecolor="#ffffff"
     bordercolor="#666666"
     borderopacity="1.0"
     inkscape:pageshadow="2"
     inkscape:pageopacity="0.0"
     inkscape:pagecheckerboard="0"
     showgrid="false"
     inkscape:zoom="8.3125"
     inkscape:cx="17.203008"
     inkscape:cy="19.669173"
     inkscape:window-width="1366"
     inkscape:window-height="704"
     inkscape:window-x="0"
     inkscape:window-y="27"
     inkscape:window-maximized="1"
     inkscape:current-layer="layer1" />
  <title
     id="title2">file_type_cypress</title>
  <g
     inkscape:groupmode="layer"
     id="layer1"
     inkscape:label="selenium"
     sodipodi:insensitive="true">
    <path
       d="M 28.292767,8.480955 26.507815,6.800692 25.738349,6.073101 25.021227,6.853037 23.843473,8.130246 h -4.187572 c -0.01047,0 -0.02094,0 -0.03141,0.0052 -0.01047,-0.0052 -0.0157,-0.0052 -0.02617,-0.0052 H 8.145314 c -1.444712,0 -2.617232,1.17252 -2.617232,2.617232 v 16.750286 c 0,1.444713 1.17252,2.617233 2.617232,2.617233 H 24.8956 c 1.444712,0 2.617232,-1.17252 2.617232,-2.617233 V 10.862636 L 28.350347,9.95184 29.04653,9.187608 Z m -17.29467,18.493363 c -1.947221,0 -3.282009,-1.036424 -3.37623,-2.617232 h 1.334789 c 0.14133,0.858452 0.947438,1.371429 2.140896,1.371429 1.094003,0 1.90011,-0.570556 1.90011,-1.387133 0,-0.717121 -0.476336,-1.099237 -1.664559,-1.387133 L 10.191989,22.671588 C 8.62165,22.289472 7.857418,21.472896 7.857418,20.185218 c 0,-1.580809 1.287679,-2.632936 3.240134,-2.632936 1.80589,0 3.140678,1.052127 3.187789,2.580591 h -1.334789 c -0.14133,-0.811342 -0.853217,-1.334789 -1.90011,-1.334789 -1.099238,0 -1.811125,0.523447 -1.811125,1.334789 0,0.670011 0.476336,1.005017 1.617449,1.292913 l 0.999783,0.240785 c 1.811125,0.429226 2.570122,1.193458 2.570122,2.533481 0,1.722139 -1.334788,2.774266 -3.428574,2.774266 z M 22.278368,23.833639 H 17.36844 v 0.06805 c 0.05235,1.109707 0.78517,1.962924 1.868704,1.962924 0.78517,0 1.37143,-0.277426 1.61745,-0.785169 h 1.324319 c -0.29313,1.198692 -1.423774,1.894876 -2.994114,1.894876 -1.962924,0 -3.187788,-1.298147 -3.187788,-3.381464 0,-2.083317 1.224864,-3.42334 3.187788,-3.42334 1.915814,0 3.093569,1.251037 3.093569,3.287244 z m -3.282009,-5.234464 -5.616581,-5.339154 1.690732,-1.779718 3.826394,3.559436 6.893789,-7.48005 1.784953,1.680263 z m 0.18844,2.643404 c -0.968376,0 -1.633153,0.617667 -1.748311,1.544167 H 20.886 c -0.104689,-0.963141 -0.72759,-1.544167 -1.701201,-1.544167 z"
       id="path2"
       style="stroke-width:0.523446" />
  </g>
</svg>
